<?xml version="1.0" standalone="no"?>
<!DOCTYPE svg PUBLIC "-//W3C//DTD SVG 20010904//EN"
 "http://www.w3.org/TR/2001/REC-SVG-20010904/DTD/svg10.dtd">
<svg version="1.0" xmlns="http://www.w3.org/2000/svg"
 width="744.000000pt" height="183.000000pt" viewBox="0 0 744.000000 183.000000"
 preserveAspectRatio="xMidYMid meet">

<g transform="translate(0.000000,183.000000) scale(0.100000,-0.100000)"
fill="#000000" stroke="none">
<path d="M5631 1368 c-54 -20 -65 -70 -26 -116 15 -18 25 -42 25 -61 l0 -31
-184 0 c-170 0 -185 -1 -210 -21 l-26 -20 0 -263 c0 -254 1 -264 21 -282 19
-17 41 -19 250 -22 l229 -3 0 55 0 56 -230 0 -230 0 0 220 0 220 190 0 190 0
0 -98 0 -98 40 -39 c40 -39 40 -39 40 -116 0 -73 1 -78 23 -81 19 -3 22 -10
25 -60 3 -50 6 -58 22 -58 17 0 20 7 20 54 0 49 -2 55 -22 58 -22 3 -23 8 -26
94 -3 89 -3 91 -37 124 -35 34 -35 34 -35 127 l0 93 150 0 150 0 0 -53 c0 -49
-3 -56 -45 -97 l-45 -44 0 -117 c0 -114 1 -118 23 -121 19 -3 22 -10 25 -61
l3 -57 48 0 c71 0 108 16 120 52 7 19 11 121 11 255 0 261 -6 288 -64 299 -43
7 -45 19 -10 46 56 44 6 139 -65 123 -61 -13 -77 -98 -25 -132 13 -8 24 -19
24 -24 0 -5 -67 -9 -150 -9 l-150 0 0 31 c0 19 10 43 25 61 28 33 30 46 14 82
-14 31 -55 47 -88 34z m53 -53 c9 -25 -5 -45 -30 -45 -14 0 -27 7 -30 15 -10
25 4 45 30 45 13 0 26 -7 30 -15z m336 -40 c15 -18 7 -43 -16 -52 -24 -9 -46
24 -33 48 12 23 32 24 49 4z m50 -395 l0 -221 -67 3 -68 3 -3 110 -3 111 46
49 c43 47 45 53 45 107 0 55 1 58 25 58 l25 0 0 -220z"/>
<path d="M4947 1182 c-22 -25 -21 -45 3 -67 30 -27 74 -10 78 30 6 49 -48 73
-81 37z"/>
<path d="M2790 1110 l0 -50 -55 0 c-30 0 -65 -5 -79 -11 -32 -15 -56 -75 -56
-143 0 -67 15 -110 45 -130 34 -22 97 -20 128 4 14 11 28 20 31 20 3 0 6 -9 6
-20 0 -17 7 -20 45 -20 l45 0 0 200 0 200 -55 0 -55 0 0 -50z m0 -189 c0 -60
-3 -70 -20 -76 -10 -3 -28 -1 -40 5 -16 8 -20 21 -20 60 0 69 6 80 46 80 l34
0 0 -69z"/>
<path d="M1300 950 l0 -190 55 0 54 0 3 73 3 72 58 3 57 3 0 34 0 35 -61 0
-60 0 3 43 3 42 73 3 72 3 0 34 0 35 -130 0 -130 0 0 -190z"/>
<path d="M3123 1129 c-40 -12 -63 -52 -63 -112 0 -60 25 -89 100 -117 67 -25
77 -34 60 -55 -9 -11 -28 -13 -85 -8 l-72 6 -5 -34 c-3 -19 -4 -36 -2 -38 7
-8 153 -13 187 -7 55 10 87 49 87 106 0 63 -21 88 -101 120 -39 15 -65 32 -67
43 -3 15 5 17 66 17 74 0 82 5 82 55 0 18 -7 24 -37 29 -51 8 -111 6 -150 -5z"/>
<path d="M1640 1042 c-42 -21 -64 -81 -56 -154 7 -69 29 -103 76 -122 89 -35
185 -7 213 63 34 84 14 186 -42 215 -41 22 -146 21 -191 -2z m130 -71 c11 -22
13 -111 2 -127 -15 -22 -42 -24 -62 -4 -21 21 -25 61 -14 119 5 26 11 31 35
31 18 0 32 -7 39 -19z"/>
<path d="M1940 920 c0 -159 1 -160 84 -160 33 0 52 6 74 25 31 26 42 24 42 -7
0 -15 8 -18 45 -18 l45 0 0 150 0 150 -55 0 -55 0 0 -104 c0 -103 0 -104 -26
-110 -46 -12 -54 6 -54 115 l0 99 -50 0 -50 0 0 -140z"/>
<path d="M2327 1053 c-26 -4 -28 -8 -25 -41 l3 -37 58 3 c35 2 63 -1 72 -8 29
-24 16 -37 -45 -43 -69 -8 -96 -22 -108 -57 -30 -88 74 -156 146 -95 29 24 30
24 35 5 4 -16 14 -20 46 -20 l41 0 0 116 c0 164 -14 184 -125 182 -38 0 -83
-3 -98 -5z m123 -197 c0 -16 -7 -26 -21 -29 -31 -8 -49 2 -49 29 0 21 5 24 35
24 30 0 35 -3 35 -24z"/>
<path d="M3390 911 l0 -151 50 0 50 0 0 105 c0 103 0 105 25 111 50 13 55 3
55 -111 l0 -105 55 0 55 0 0 105 c0 103 0 105 24 111 14 3 30 3 35 -1 7 -4 11
-48 11 -111 l0 -104 56 0 56 0 -4 136 c-3 121 -5 137 -22 150 -27 19 -95 17
-131 -4 -28 -17 -30 -17 -47 0 -27 27 -97 24 -141 -6 l-36 -25 -3 22 c-2 18
-11 23 -45 25 l-43 3 0 -150z"/>
<path d="M3953 1053 c-19 -4 -23 -11 -23 -43 l0 -39 68 2 c61 2 67 0 70 -19 3
-19 -3 -22 -59 -28 -72 -8 -109 -37 -109 -84 0 -85 115 -121 167 -53 11 14 13
13 19 -6 5 -20 13 -23 51 -23 l45 0 -3 126 c-4 123 -5 126 -32 150 -25 21 -37
24 -100 23 -40 -1 -82 -4 -94 -6z m117 -197 c0 -29 -38 -43 -59 -21 -21 21 -6
45 29 45 25 0 30 -4 30 -24z"/>
<path d="M4280 1042 c-53 -26 -75 -114 -50 -204 28 -101 205 -119 272 -28 47
64 27 204 -32 235 -40 21 -146 19 -190 -3z m130 -78 c21 -54 9 -129 -22 -137
-45 -12 -73 63 -52 141 9 33 61 31 74 -4z"/>
<path d="M4580 920 c0 -159 1 -160 84 -160 33 0 52 6 74 25 31 26 42 24 42 -7
0 -15 8 -18 45 -18 l45 0 0 150 0 150 -55 0 -55 0 0 -104 c0 -96 -2 -105 -20
-111 -11 -3 -29 -3 -40 0 -18 6 -20 15 -20 111 l0 104 -50 0 -50 0 0 -140z"/>
<path d="M4930 910 l0 -150 55 0 55 0 0 150 0 150 -55 0 -55 0 0 -150z"/>
<path d="M5770 1038 c-27 -30 -25 -69 5 -98 24 -23 25 -28 25 -147 l0 -123 25
0 25 0 0 123 c0 119 1 124 25 147 27 26 31 50 14 83 -16 30 -28 37 -66 37 -20
0 -40 -8 -53 -22z m80 -33 c10 -12 10 -18 0 -30 -18 -22 -48 -18 -55 6 -11 35
31 53 55 24z"/>
<path d="M5850 605 c0 -48 2 -55 20 -55 18 0 20 7 20 55 0 48 -2 55 -20 55
-18 0 -20 -7 -20 -55z"/>
<path d="M5605 503 c-5 -5 -15 -17 -21 -28 -6 -11 -21 -21 -33 -23 -13 -2 -21
-11 -21 -23 0 -19 7 -19 133 -17 108 2 132 6 132 18 0 8 -10 17 -23 20 -12 3
-28 16 -35 30 -11 22 -20 25 -67 28 -30 1 -59 -1 -65 -5z"/>
</g>
</svg>
