<?xml version="1.0" encoding="UTF-8"?>
<svg version="1.1" xmlns="http://www.w3.org/2000/svg" width="753" height="761">
<path d="M0 0 C110.55 0 221.1 0 335 0 C335 116.49 335 232.98 335 353 C224.45 353 113.9 353 0 353 C0 339.47 0 325.94 0 312 C-3.114375 311.5875 -6.22875 311.175 -9.4375 310.75 C-42.51013144 306.11151467 -75.16800504 294.23542477 -102 274 C-102.96164063 273.29101562 -103.92328125 272.58203125 -104.9140625 271.8515625 C-121.82266087 259.3092351 -121.82266087 259.3092351 -129 252 C-129.87398438 251.13761719 -130.74796875 250.27523437 -131.6484375 249.38671875 C-136.98880393 244.099909 -142.19280786 238.78174961 -147 233 C-147.70793701 232.15477783 -147.70793701 232.15477783 -148.43017578 231.29248047 C-154.9947958 223.43370962 -161.33052955 215.56153816 -166.80078125 206.88720703 C-168.2750964 204.5670816 -169.77899449 202.26697402 -171.28125 199.96484375 C-180.2361082 186.16912876 -188.30694463 172.25047024 -195.0625 157.25 C-195.36212646 156.59402832 -195.66175293 155.93805664 -195.97045898 155.26220703 C-198.81437141 148.72896381 -198.81437141 148.72896381 -198 145 C-196.24922513 142.98751136 -194.63876741 141.39187785 -192.625 139.6875 C-192.0769873 139.20603516 -191.52897461 138.72457031 -190.96435547 138.22851562 C-186.10318345 133.99208954 -181.0842341 129.96435875 -176 126 C-174.48212891 124.77216797 -174.48212891 124.77216797 -172.93359375 123.51953125 C-164.05717887 116.36358562 -154.77691129 109.89828882 -145.31005859 103.55029297 C-143.12484509 102.08378422 -140.94639329 100.60777233 -138.76953125 99.12890625 C-133.05339311 95.26070004 -127.35426332 91.44760043 -121.24145508 88.22363281 C-118.90967862 86.95069266 -116.65980596 85.58139878 -114.3984375 84.1875 C-109.21225218 81.0665761 -103.90235896 78.34643272 -98.4375 75.75 C-97.45297852 75.28182861 -96.46845703 74.81365723 -95.45410156 74.33129883 C-73.55040544 64.06458844 -51.30714405 55.89233019 -27.6875 50.6875 C-25.9708313 50.30513184 -25.9708313 50.30513184 -24.21948242 49.91503906 C-15.98914786 48.17984521 -8.54656718 47.61046908 0 47 C0 31.49 0 15.98 0 0 Z M1 48 C1 56.25 1 64.5 1 73 C4.155625 72.938125 7.31125 72.87625 10.5625 72.8125 C29.84081 72.71244709 47.80440989 75.69562413 66 82 C67.18980469 82.4021875 68.37960937 82.804375 69.60546875 83.21875 C86.20178212 89.2023173 101.06454539 98.84327434 115.05078125 109.44458008 C118.18156954 112.09225072 118.18156954 112.09225072 122 113 C122 113.66 122 114.32 122 115 C123.84946359 116.6407615 123.84946359 116.6407615 126.1875 118.3125 C129.78039414 120.96397246 132.88140296 123.80343803 136 127 C136.79019531 127.76699219 137.58039063 128.53398437 138.39453125 129.32421875 C144.08272185 134.88375884 149.18104715 140.67344179 154 147 C151.66510581 152.37607309 148.42934951 156.25495926 144.5625 160.5625 C143.4171397 161.8547344 142.27259012 163.1476879 141.12890625 164.44140625 C140.58508301 165.05387207 140.04125977 165.66633789 139.48095703 166.29736328 C138.24787276 167.71502397 137.06785859 169.17862946 135.90234375 170.65234375 C133.76158926 173.29421942 131.42969198 175.62247932 129 178 C128.22140625 178.80179688 127.4428125 179.60359375 126.640625 180.4296875 C122.17697752 184.99544456 117.69953527 189.22109978 112.58203125 193.0390625 C110.57956114 194.55984918 108.63557753 196.10930552 106.69921875 197.7109375 C82.44845579 217.71119596 53.53768329 234.77709063 21 233 C16.64228565 232.46100616 12.32766269 231.73742511 8 231 C5.69 230.67 3.38 230.34 1 230 C1 237.92 1 245.84 1 254 C18.50028473 257.37354886 35.62401189 256.71620504 53 253 C53.66273926 252.86609863 54.32547852 252.73219727 55.00830078 252.59423828 C72.64658437 248.9771406 89.2027672 241.48594405 105 233 C105.89211182 232.52095215 105.89211182 232.52095215 106.80224609 232.03222656 C125.63676032 221.80792427 143.27583688 209.2118148 159.30883789 195.00830078 C162.70585981 192.01478823 166.21764176 189.50581233 170 187 C171.82869385 185.3735959 171.82869385 185.3735959 173.375 183.6875 C175.78303776 181.20025047 178.24383321 178.87506525 180.875 176.625 C185.45971224 172.66057236 189.99302757 168.55422098 194 164 C194 163.34 194 162.68 194 162 C194.84691406 161.65388672 194.84691406 161.65388672 195.7109375 161.30078125 C198.59494739 159.66191556 200.41285737 157.65488986 202.625 155.1875 C203.40101563 154.33542969 204.17703125 153.48335938 204.9765625 152.60546875 C206.91834648 150.10514074 208.00328746 147.98477894 209 145 C190.03045957 124.41114734 190.03045957 124.41114734 169 106 C168.23945313 105.37222656 167.47890625 104.74445313 166.6953125 104.09765625 C120.8678533 66.37101054 60.9150366 42.00849634 1 48 Z M-117 124 C-118.41666667 125.20833333 -119.83333333 126.41666667 -121.25 127.625 C-125.70082422 131.57195733 -129.92434297 135.66621802 -134 140 C-134.9178125 140.88429688 -135.835625 141.76859375 -136.78125 142.6796875 C-139.58927291 145.72721825 -141.4645958 148.14342593 -143 152 C-142.40245073 157.07916883 -140.52402729 161.10862675 -138.20751953 165.62841797 C-136.85325237 168.28821401 -135.59429203 170.98315412 -134.33984375 173.69140625 C-131.95138957 178.82338411 -129.4969986 183.92005269 -127 189 C-126.34 189 -125.68 189 -125 189 C-124.76410156 189.84304687 -124.52820313 190.68609375 -124.28515625 191.5546875 C-122.80456591 195.52392969 -120.82578526 198.65314506 -118.4375 202.125 C-117.76932251 203.10786987 -117.76932251 203.10786987 -117.08764648 204.1105957 C-110.47553985 213.76668687 -103.5061188 222.79654067 -95.48046875 231.30859375 C-93 234 -93 234 -90.8828125 236.65625 C-87.9824102 240.26670929 -84.55215158 243.04525573 -81 246 C-80.47470703 246.4429541 -79.94941406 246.8859082 -79.40820312 247.34228516 C-58.36049371 265.02212431 -28.4560775 283 0 283 C0 273.43 0 263.86 0 254 C-4.145625 253.01 -4.145625 253.01 -8.375 252 C-40.52916771 243.77808254 -66.02022987 223.63866989 -84 196 C-84.65742188 194.99324219 -85.31484375 193.98648438 -85.9921875 192.94921875 C-90.68243019 185.55987413 -94.58168591 178.05266709 -98 170 C-98.51175781 168.82308594 -99.02351563 167.64617187 -99.55078125 166.43359375 C-100.02902344 165.27988281 -100.50726563 164.12617188 -101 162.9375 C-101.433125 161.89464844 -101.86625 160.85179687 -102.3125 159.77734375 C-103 157 -103 157 -102.4375 154.9296875 C-96.65371842 147.1655894 -88.00952286 141.24721988 -80 136 C-78.42798828 134.93652344 -78.42798828 134.93652344 -76.82421875 133.8515625 C-53.26509902 118.09805276 -27.74114835 109.83561302 0 105 C0 94.77 0 84.54 0 74 C-42.57053751 74 -85.85495675 96.25179574 -117 124 Z M1 106 C1 114.58 1 123.16 1 132 C5.30710422 133.23060121 9.40594804 134.31398881 13.75 135.25 C31.732881 139.71191784 41.80209253 152.38697283 50.98046875 167.59375 C52.01750942 169.34287855 53.0540111 171.09235336 54.08056641 172.84765625 C54.80276918 174.08148641 55.52908437 175.3129199 56.25976562 176.54174805 C57.26162632 178.22692792 58.25031805 179.91991633 59.23828125 181.61328125 C59.81964844 182.40089844 60.40101563 183.18851562 61 184 C65.12744343 184 66.04694583 182.38249504 69 179.5625 C69.99010111 178.63318879 70.98234306 177.70615391 71.9765625 176.78125 C72.4809082 176.31203125 72.98525391 175.8428125 73.50488281 175.359375 C76.58904399 172.55522584 79.86062202 169.9781292 83.1015625 167.359375 C90.85216395 161.05026007 98.42503423 154.5179938 106 148 C97.13669136 130.27338271 71.835408 116.86276295 53.89453125 110.25 C39.81489974 105.60812708 14.70409653 99.14795173 1 106 Z M-53 154 C-53.67417969 154.55816406 -54.34835938 155.11632812 -55.04296875 155.69140625 C-56.96511822 157.28775106 -56.96511822 157.28775106 -59 160 C-57.61514045 177.51725846 -42.68912203 197.40419658 -30 209 C-29.2575 209.804375 -28.515 210.60875 -27.75 211.4375 C-21.13601029 217.60053587 -9.51008432 228 0 228 C0 196.65 0 165.3 0 133 C-21.49224596 133 -37.19709467 139.73754594 -53 154 Z M227 192.8125 C225.56527344 194.04033203 225.56527344 194.04033203 224.1015625 195.29296875 C223.59786133 195.73302246 223.09416016 196.17307617 222.57519531 196.62646484 C219.86654489 198.98834756 217.11857635 201.30388231 214.375 203.625 C213.81772217 204.09736084 213.26044434 204.56972168 212.6862793 205.05639648 C203.26624106 213.02505518 193.31453736 220.21731631 183.27392578 227.37744141 C181.84816518 228.39479216 180.42434916 229.41487968 179.00341797 230.43896484 C162.10914249 242.59144887 143.92330008 253.31958712 125 262 C124.3076123 262.32129883 123.61522461 262.64259766 122.90185547 262.97363281 C95.64812909 275.47176945 64.73569465 284.26654315 34.59375 284.09765625 C33.6284436 284.0962413 32.66313721 284.09482635 31.6685791 284.09336853 C28.61235335 284.0878108 25.55620327 284.0752663 22.5 284.0625 C20.41666773 284.05747953 18.3333343 284.05291758 16.25 284.04882812 C11.16661469 284.03870992 6.08339116 284.01912647 1 284 C1 292.91 1 301.82 1 311 C22.47242253 313.38582473 43.64782508 311.85528584 65 309 C66.0916748 308.85546387 67.18334961 308.71092773 68.30810547 308.56201172 C85.39190086 306.24465146 102.20309811 302.86222253 119 299 C119.90411621 298.79262207 120.80823242 298.58524414 121.73974609 298.37158203 C180.44352216 284.72139131 246.10687709 263.50056001 293 224 C289.66316323 220.46222233 286.42101154 217.80322062 282.25 215.3125 C281.69779785 214.98072754 281.1455957 214.64895508 280.57666016 214.30712891 C278.72238591 213.19681258 276.86140584 212.09831325 275 211 C273.5858045 210.15777537 272.17174644 209.31531991 270.7578125 208.47265625 C263.74118564 204.30597038 256.69967767 200.22033818 249.49609375 196.3828125 C245.99591597 194.44374688 242.64001178 192.2869642 239.2890625 190.1015625 C233.9727198 187.54318598 231.23140997 189.12936723 227 192.8125 Z " fill="#75B600" transform="translate(245,1)"/>
<path d="M0 0 C11.323125 -0.061875 22.64625 -0.12375 34.3125 -0.1875 C37.84622314 -0.21481201 41.37994629 -0.24212402 45.02075195 -0.27026367 C95.16153749 -0.49834107 95.16153749 -0.49834107 112.08227539 15.91137695 C113.4083365 17.25465081 114.70552009 18.62626622 116 20 C116.54269531 20.56203125 117.08539063 21.1240625 117.64453125 21.703125 C130.93241569 37.73295385 130.51300027 64.09487637 128.77734375 83.48779297 C126.82053048 99.20086575 121.82210223 112.83397571 109.25 122.75 C93.11636023 134.32240087 74.29245468 134.1646562 55.17578125 134.09765625 C53.75728393 134.09618209 52.33878606 134.09516431 50.92028809 134.09460449 C45.71768365 134.08940652 40.51509093 134.07544547 35.3125 134.0625 C23.659375 134.041875 12.00625 134.02125 0 134 C0 89.78 0 45.56 0 0 Z M38 30 C38 54.42 38 78.84 38 104 C60.96984645 105.32443477 60.96984645 105.32443477 81.47265625 96.609375 C90.29875937 87.30923565 92.08468421 75.36389506 92 63 C90.79970231 52.46765809 87.9834867 44.68639768 80.4375 37.25 C66.90209295 27.33674414 54.90520263 30 38 30 Z " fill="#000000" transform="translate(355,415)"/>
<path d="M0 0 C20.295 -0.0928125 20.295 -0.0928125 41 -0.1875 C45.23972656 -0.21481201 49.47945312 -0.24212402 53.84765625 -0.27026367 C59.10742188 -0.28381348 59.10742188 -0.28381348 61.58569336 -0.28633118 C63.28168107 -0.29087624 64.97766038 -0.30129568 66.67358398 -0.31672668 C85.19307973 -0.47650684 105.26737171 0.62379136 119.484375 14.23046875 C134.60176806 31.88041478 134.16511878 54.57852676 134.1328125 76.51953125 C134.13348788 78.15622471 134.13445985 79.79291808 134.13571167 81.42961121 C134.13717222 84.82556126 134.13508398 88.22148471 134.13037109 91.61743164 C134.12461516 95.97765317 134.1279997 100.33781392 134.13394356 104.69803333 C134.13754351 108.06162481 134.13641424 111.42520166 134.13381577 114.78879356 C134.13314797 116.39842422 134.13396979 118.0080562 134.13629532 119.61768532 C134.13881887 121.85038463 134.13498828 124.08298216 134.12939453 126.31567383 C134.12859894 127.5858284 134.12780334 128.85598297 134.12698364 130.16462708 C134 133 134 133 133 134 C130.26105915 134.08858646 127.5474673 134.11523479 124.80859375 134.09765625 C123.98875504 134.0962413 123.16891632 134.09482635 122.32423401 134.09336853 C119.69528618 134.08775289 117.06642227 134.07519779 114.4375 134.0625 C112.65950643 134.05748701 110.88151154 134.05292376 109.10351562 134.04882812 C104.73564455 134.03777839 100.36783652 134.02050331 96 134 C95.99413376 133.14381577 95.98826752 132.28763153 95.98222351 131.40550232 C95.92392551 123.27197125 95.85164231 115.13870402 95.76428509 107.00543118 C95.71986755 102.82566249 95.68055162 98.6459849 95.65356445 94.46606445 C95.62724181 90.41987673 95.58664426 86.37404514 95.53681374 82.32808113 C95.52033804 80.79705352 95.50870533 79.26596459 95.50238609 77.73486137 C95.68777223 57.45478355 95.68777223 57.45478355 87 40 C72.78478196 28.75808454 57.09348862 33.51604023 38 33 C38 66.33 38 99.66 38 134 C25.46 134 12.92 134 0 134 C0 89.78 0 45.56 0 0 Z " fill="#000000" transform="translate(1,415)"/>
<path d="M0 0 C2.17666626 -0.36076355 2.17666626 -0.36076355 4.90869141 -0.34057617 C6.44005234 -0.34023628 6.44005234 -0.34023628 8.00234985 -0.33988953 C9.10759003 -0.32440567 10.2128302 -0.30892181 11.3515625 -0.29296875 C12.4807309 -0.28872391 13.60989929 -0.28447906 14.77328491 -0.28010559 C18.39076273 -0.26327132 22.00768969 -0.22560975 25.625 -0.1875 C28.07290864 -0.17245934 30.52082598 -0.15876986 32.96875 -0.14648438 C38.9793556 -0.11335227 44.98963846 -0.06310579 51 0 C51.7578125 1.89453125 52.515625 3.7890625 53.2734375 5.68359375 C53.76328125 6.90812256 54.253125 8.13265137 54.7578125 9.39428711 C55.8492534 12.1228476 56.94036161 14.85154083 58.03125 17.58032227 C60.54940564 23.87860104 63.06905847 30.17622233 65.6015625 36.46875 C70.41506262 48.44031539 75.12414377 60.44894616 79.76647949 72.4876709 C83.20784567 81.40926283 86.69165448 90.31170465 90.25 99.1875 C90.6526709 100.19248535 91.0553418 101.1974707 91.47021484 102.23291016 C93.43313085 107.12293935 95.40892759 112.00744976 97.3984375 116.88671875 C97.77452148 117.81395752 98.15060547 118.74119629 98.53808594 119.6965332 C99.24256834 121.43257913 99.95129315 123.16691194 100.66503906 124.89916992 C100.9740918 125.66205322 101.28314453 126.42493652 101.6015625 127.2109375 C102.00882568 128.20552979 102.00882568 128.20552979 102.42431641 129.22021484 C103 131 103 131 103 134 C89.47 134 75.94 134 62 134 C59.36 126.41 56.72 118.82 54 111 C23.805 110.505 23.805 110.505 -7 110 C-7.99 113.96 -8.98 117.92 -10 122 C-11.65 125.96 -13.3 129.92 -15 134 C-27.21 134 -39.42 134 -52 134 C-51.30650176 129.14551234 -50.86817403 126.10807921 -49.14453125 121.8125 C-48.77263672 120.87462646 -48.40074219 119.93675293 -48.01757812 118.97045898 C-47.42106445 117.50008179 -47.42106445 117.50008179 -46.8125 116 C-46.40322266 114.97398682 -45.99394531 113.94797363 -45.57226562 112.89086914 C-44.75541269 110.84536006 -43.93534221 108.80113249 -43.11181641 106.75830078 C-42.19598881 104.48622784 -41.28767664 102.2115872 -40.38671875 99.93359375 C-38.24195346 94.52636857 -36.05904489 89.13644079 -33.84375 83.7578125 C-33.26367188 82.34737671 -33.26367188 82.34737671 -32.671875 80.90844727 C-31.92426506 79.09284538 -31.17448879 77.27813298 -30.421875 75.46459961 C-27.9445235 69.45130007 -25.6294829 63.38479538 -23.3605957 57.29055786 C-20.50389976 49.63457232 -17.50521034 42.03613422 -14.5 34.4375 C-13.95170791 33.04757141 -13.40353073 31.65759747 -12.85546875 30.26757812 C-11.51050816 26.858007 -10.16027318 23.45055225 -8.80859375 20.04364014 C-7.97768587 17.94360326 -7.1526498 15.84131981 -6.328125 13.73876953 C-5.79178387 12.37918553 -5.2553299 11.01964604 -4.71875 9.66015625 C-4.24373047 8.45109619 -3.76871094 7.24203613 -3.27929688 5.99633789 C-2 3 -2 3 0 0 Z M24 26 C23.61779297 27.0108667 23.23558594 28.0217334 22.84179688 29.06323242 C21.38540258 32.91493556 19.92858857 36.76647987 18.47174072 40.61801147 C17.50411584 43.17661684 16.53695433 45.73539703 15.56982422 48.29418945 C12.82416447 55.55594649 10.07729934 62.81696575 7.2890625 70.0625 C6.91458984 71.03678955 6.54011719 72.0110791 6.15429688 73.01489258 C5.48397254 74.75541451 4.81093189 76.49489353 4.13476562 78.2331543 C2.56395272 82.00642165 2.56395272 82.00642165 2 86 C16.52 86 31.04 86 46 86 C44.00472003 79.34906676 41.94087584 72.86363002 39.53125 66.37109375 C39.20966919 65.49655045 38.88808838 64.62200714 38.5567627 63.72096252 C37.5406424 60.95876692 36.52059582 58.19804473 35.5 55.4375 C34.47997527 52.67317979 33.460842 49.90853783 32.4432373 47.14332581 C31.81366712 45.4330743 31.18266412 43.72334925 30.54992676 42.01426697 C28.59458565 36.70919382 26.75634422 31.37421469 25 26 C24.67 26 24.34 26 24 26 Z " fill="#000000" transform="translate(606,415)"/>
<path d="M0 0 C13.86 0 27.72 0 42 0 C45.85890815 12.86302716 49.70988963 25.70009361 53.125 38.6875 C58.63215545 59.58139636 64.90493382 80.27197498 71 101 C77.1198253 81.49262608 83.02983128 61.93146887 88.78723145 42.31433105 C89.97937045 38.25412597 91.17451531 34.19480476 92.36922646 30.13535595 C93.29575918 26.98696621 94.22173564 23.83841699 95.14657593 20.68952942 C95.79608194 18.4789035 96.44675252 16.26861926 97.09881592 14.05874634 C97.69467772 12.03630703 98.28658479 10.01269791 98.87432861 7.98788452 C99.27418976 6.62332626 99.27418976 6.62332626 99.68212891 5.23120117 C100.02940536 4.03644417 100.02940536 4.03644417 100.38369751 2.81755066 C101 1 101 1 102 0 C104.8843382 -0.08865208 107.74462158 -0.11521296 110.62890625 -0.09765625 C111.92525246 -0.09553383 111.92525246 -0.09553383 113.24778748 -0.09336853 C116.01939292 -0.08775239 118.7909188 -0.07519719 121.5625 -0.0625 C123.4368478 -0.05748708 125.31119685 -0.05292381 127.18554688 -0.04882812 C131.79039544 -0.03777772 136.39518421 -0.0205023 141 0 C139.22048312 7.48749232 137.19233131 14.78741885 134.6875 22.0625 C130.78965588 33.57689659 127.0075869 45.12671147 123.25 56.6875 C122.64478549 58.54818037 122.03956084 60.40885744 121.43432617 62.26953125 C118.4977605 71.30035622 115.56698371 80.33305025 112.640625 89.3671875 C112.37316467 90.19267593 112.10570435 91.01816437 111.83013916 91.8686676 C110.37916353 96.34718216 108.9293429 100.82606474 107.48223877 105.30583191 C104.37414222 114.89008205 101.18673347 124.43979958 98 134 C79.85 134 61.7 134 43 134 C37.44866071 117.34598214 37.44866071 117.34598214 34.93383789 109.7983551 C32.81452242 103.43828557 30.6930481 97.07897258 28.5625 90.72265625 C25.65121509 82.03220369 22.74723756 73.34880621 20.09765625 64.57421875 C18.58853286 59.66016929 17.01025318 54.76899694 15.4375 49.875 C12.1801202 39.72415066 8.95590946 29.56312022 5.75418091 19.39459229 C5.2514968 17.79852498 4.74830278 16.20261817 4.24459839 14.60687256 C3.53661442 12.36336887 2.83052798 10.11927706 2.125 7.875 C1.90977188 7.19390167 1.69454376 6.51280334 1.47279358 5.81106567 C0 1.11450541 0 1.11450541 0 0 Z " fill="#000000" transform="translate(139,415)"/>
<path d="M0 0 C12.54 0 25.08 0 38 0 C38 44.22 38 88.44 38 134 C25.46 134 12.92 134 0 134 C0 89.78 0 45.56 0 0 Z " fill="#000000" transform="translate(501,415)"/>
<path d="M0 0 C12.54 0 25.08 0 38 0 C38 44.22 38 88.44 38 134 C25.46 134 12.92 134 0 134 C0 89.78 0 45.56 0 0 Z " fill="#000000" transform="translate(295,415)"/>
<path d="M0 0 C0.721875 0.5775 1.44375 1.155 2.1875 1.75 C1.61115861 6.50481646 -0.36318521 9.72048212 -2.8125 13.75 C-6.23950075 13.30780635 -8.79048028 12.26251212 -11.8125 10.6875 C-18.73448841 7.510574 -26.46536964 7.52271887 -33.5625 10.125 C-35.90775245 11.55445973 -35.90775245 11.55445973 -36.8125 13.75 C-37.33258455 18.6187122 -37.33258455 18.6187122 -35.26171875 22.8515625 C-32.1506301 25.26302834 -29.08330077 25.96521405 -25.3125 26.75 C-23.8755999 27.0842351 -22.43940297 27.42150684 -21.00390625 27.76171875 C-19.94067139 28.00994385 -19.94067139 28.00994385 -18.85595703 28.26318359 C-10.23733304 30.31641373 -3.15829588 32.29878297 2.1875 39.75 C5.27834318 45.5285329 5.17595624 53.55678329 3.6875 59.87109375 C1.01228009 66.69594454 -3.36868299 70.9476542 -9.84765625 73.98828125 C-19.44402496 77.70854347 -34.05928046 77.35230615 -43.625 73.81640625 C-47.86730069 71.74828467 -51.87147713 69.34101291 -55.8125 66.75 C-54.08937791 62.08790798 -51.76805839 58.71667047 -48.8125 54.75 C-47.93207031 55.17152344 -47.05164063 55.59304688 -46.14453125 56.02734375 C-44.98308594 56.57519531 -43.82164062 57.12304688 -42.625 57.6875 C-41.47644531 58.23277344 -40.32789063 58.77804687 -39.14453125 59.33984375 C-30.56398132 62.9712371 -22.0677926 62.6343308 -13.4296875 59.40625 C-12.89601563 59.1896875 -12.36234375 58.973125 -11.8125 58.75 C-11.50693774 57.36135566 -11.24449192 55.96318736 -11 54.5625 C-10.84917969 53.78519531 -10.69835937 53.00789062 -10.54296875 52.20703125 C-10.86086445 49.30911243 -11.76040827 47.82747502 -13.92456055 45.87719727 C-19.07172106 42.80407686 -25.66169192 42.2890371 -31.46679688 41.16601562 C-39.7373043 39.41316181 -45.93536707 36.97578898 -50.8125 29.8125 C-53.22883103 22.73723007 -53.29607322 12.95345583 -50.1875 6.125 C-46.13850156 -0.42443257 -39.8624009 -4.044431 -32.47265625 -5.80859375 C-21.39406265 -7.64689195 -9.53959594 -6.27015696 0 0 Z " fill="#000000" transform="translate(312.8125,655.25)"/>
<path d="M0 0 C1.51400391 0.01740234 1.51400391 0.01740234 3.05859375 0.03515625 C4.07050781 0.04417969 5.08242188 0.05320312 6.125 0.0625 C6.90746094 0.07410156 7.68992187 0.08570313 8.49609375 0.09765625 C8.82991058 0.98857468 9.16372742 1.8794931 9.50765991 2.79740906 C12.65571659 11.19898805 15.80435395 19.60034922 18.95355797 28.00149822 C20.57252033 32.32046969 22.19127898 36.63951729 23.80957031 40.95874023 C25.37170674 45.12806272 26.93438058 49.29718341 28.49742508 53.46616554 C29.09325882 55.05567076 29.68889984 56.64524822 30.28434372 58.23489952 C31.11922609 60.46367682 31.95479716 62.69219479 32.79052734 64.9206543 C33.03580673 65.57593109 33.28108612 66.23120789 33.53379822 66.90634155 C34.5362768 69.57761998 35.55255756 72.23100703 36.66519165 74.85871887 C37.49609375 77.09765625 37.49609375 77.09765625 37.49609375 80.09765625 C32.54609375 80.09765625 27.59609375 80.09765625 22.49609375 80.09765625 C17.49609375 67.34765625 17.49609375 67.34765625 17.49609375 65.09765625 C7.59609375 65.09765625 -2.30390625 65.09765625 -12.50390625 65.09765625 C-13.16390625 68.06765625 -13.82390625 71.03765625 -14.50390625 74.09765625 C-15.16390625 76.07765625 -15.82390625 78.05765625 -16.50390625 80.09765625 C-21.78390625 80.09765625 -27.06390625 80.09765625 -32.50390625 80.09765625 C-27.13295485 64.44957362 -21.41832738 48.93400039 -15.63134766 33.4362793 C-14.36047875 30.03257345 -13.09404944 26.62723343 -11.82868385 23.22147846 C-10.8458021 20.57776126 -9.86039279 17.93499182 -8.87421799 15.29250145 C-8.17852151 13.42673855 -7.48519264 11.56009337 -6.79190063 9.69343567 C-6.37411346 8.57684067 -5.95632629 7.46024567 -5.52587891 6.30981445 C-4.97463852 4.83143852 -4.97463852 4.83143852 -4.41226196 3.32319641 C-3.10532934 0.12111269 -3.10532934 0.12111269 0 0 Z M2.49609375 23.09765625 C1.0699309 27.06625783 -0.35418101 31.03558736 -1.77636719 35.00561523 C-2.26082455 36.3570562 -2.74584935 37.7082939 -3.23144531 39.05932617 C-3.92791387 40.99735653 -4.62236196 42.93610036 -5.31640625 44.875 C-5.73535156 46.04281006 -6.15429688 47.21062012 -6.5859375 48.41381836 C-7.5578444 50.78260594 -7.5578444 50.78260594 -7.50390625 52.09765625 C-0.90390625 52.09765625 5.69609375 52.09765625 12.49609375 52.09765625 C11.78191515 47.81258464 11.06419336 44.48054088 9.6484375 40.48046875 C9.11186523 38.95292969 9.11186523 38.95292969 8.56445312 37.39453125 C8.19126953 36.3478125 7.81808594 35.30109375 7.43359375 34.22265625 C7.05654297 33.15273438 6.67949219 32.0828125 6.29101562 30.98046875 C5.3637569 28.35127945 4.43199568 25.72377863 3.49609375 23.09765625 C3.16609375 23.09765625 2.83609375 23.09765625 2.49609375 23.09765625 Z " fill="#000000" transform="translate(427.50390625,649.90234375)"/>
<path d="M0 0 C1.51400391 0.01740234 1.51400391 0.01740234 3.05859375 0.03515625 C4.07050781 0.04417969 5.08242188 0.05320312 6.125 0.0625 C6.90746094 0.07410156 7.68992187 0.08570313 8.49609375 0.09765625 C8.82991058 0.98857468 9.16372742 1.8794931 9.50765991 2.79740906 C12.65571659 11.19898805 15.80435395 19.60034922 18.95355797 28.00149822 C20.57252033 32.32046969 22.19127898 36.63951729 23.80957031 40.95874023 C25.37170674 45.12806272 26.93438058 49.29718341 28.49742508 53.46616554 C29.09325882 55.05567076 29.68889984 56.64524822 30.28434372 58.23489952 C31.11922609 60.46367682 31.95479716 62.69219479 32.79052734 64.9206543 C33.03580673 65.57593109 33.28108612 66.23120789 33.53379822 66.90634155 C34.5362768 69.57761998 35.55255756 72.23100703 36.66519165 74.85871887 C37.49609375 77.09765625 37.49609375 77.09765625 37.49609375 80.09765625 C32.54609375 80.09765625 27.59609375 80.09765625 22.49609375 80.09765625 C17.49609375 67.34765625 17.49609375 67.34765625 17.49609375 65.09765625 C7.59609375 65.09765625 -2.30390625 65.09765625 -12.50390625 65.09765625 C-13.16390625 68.06765625 -13.82390625 71.03765625 -14.50390625 74.09765625 C-15.16390625 76.07765625 -15.82390625 78.05765625 -16.50390625 80.09765625 C-21.78390625 80.09765625 -27.06390625 80.09765625 -32.50390625 80.09765625 C-27.13295485 64.44957362 -21.41832738 48.93400039 -15.63134766 33.4362793 C-14.36047875 30.03257345 -13.09404944 26.62723343 -11.82868385 23.22147846 C-10.8458021 20.57776126 -9.86039279 17.93499182 -8.87421799 15.29250145 C-8.17852151 13.42673855 -7.48519264 11.56009337 -6.79190063 9.69343567 C-6.37411346 8.57684067 -5.95632629 7.46024567 -5.52587891 6.30981445 C-4.97463852 4.83143852 -4.97463852 4.83143852 -4.41226196 3.32319641 C-3.10532934 0.12111269 -3.10532934 0.12111269 0 0 Z M2.49609375 23.09765625 C1.0699309 27.06625783 -0.35418101 31.03558736 -1.77636719 35.00561523 C-2.26082455 36.3570562 -2.74584935 37.7082939 -3.23144531 39.05932617 C-3.92791387 40.99735653 -4.62236196 42.93610036 -5.31640625 44.875 C-5.73535156 46.04281006 -6.15429688 47.21062012 -6.5859375 48.41381836 C-7.5578444 50.78260594 -7.5578444 50.78260594 -7.50390625 52.09765625 C-0.90390625 52.09765625 5.69609375 52.09765625 12.49609375 52.09765625 C11.78191515 47.81258464 11.06419336 44.48054088 9.6484375 40.48046875 C9.11186523 38.95292969 9.11186523 38.95292969 8.56445312 37.39453125 C8.19126953 36.3478125 7.81808594 35.30109375 7.43359375 34.22265625 C7.05654297 33.15273438 6.67949219 32.0828125 6.29101562 30.98046875 C5.3637569 28.35127945 4.43199568 25.72377863 3.49609375 23.09765625 C3.16609375 23.09765625 2.83609375 23.09765625 2.49609375 23.09765625 Z " fill="#000000" transform="translate(353.50390625,649.90234375)"/>
<path d="M0 0 C5.81792085 4.26359691 10.02428097 10.16274886 11.4609375 17.28515625 C11.70855864 19.1824696 11.86367562 21.09145872 12 23 C7.38 23 2.76 23 -2 23 C-6 16.25 -6 16.25 -6 14 C-10.82485767 11.50438397 -14.50722697 10.53451076 -20 11 C-24.44874787 13.30992678 -26.84902817 15.49966008 -29 20 C-29.29838881 22.6420481 -29.44472327 25.04124785 -29.43359375 27.6796875 C-29.44145653 28.77617111 -29.44145653 28.77617111 -29.44947815 29.89480591 C-29.45588018 31.43620539 -29.45458492 32.97765385 -29.44604492 34.51904297 C-29.43754987 36.86125012 -29.46629224 39.20100311 -29.49804688 41.54296875 C-29.49965967 43.04687428 -29.49907986 44.55078407 -29.49609375 46.0546875 C-29.50732773 46.74658173 -29.51856171 47.43847595 -29.53013611 48.15133667 C-29.45344231 53.58017094 -27.96715105 56.61505624 -25 61 C-21.08418213 63.81473641 -16.63918878 63.53944056 -12 63 C-6.58956898 60.64763869 -4.57488174 57.14976348 -2 52 C2.62 52 7.24 52 12 52 C11.35639841 59.7232191 8.45744421 66.39096011 3 72 C-5.66298848 78.318254 -13.46332539 78.74035697 -24 78 C-31.74643431 76.39552746 -36.62641463 72.50555595 -41 66 C-44.49818973 59.7264937 -45.15937373 53.49342605 -45.203125 46.42578125 C-45.20882507 45.7019072 -45.21452515 44.97803314 -45.22039795 44.23222351 C-45.22981404 42.70341436 -45.2363684 41.17458522 -45.24023438 39.64575195 C-45.24989733 37.33702979 -45.28093398 35.02921519 -45.3125 32.72070312 C-45.38972426 22.07044803 -44.82747394 12.36080107 -37.87890625 3.7578125 C-27.50285555 -5.94951144 -12.13967166 -6.40023125 0 0 Z " fill="#000000" transform="translate(514,653)"/>
<path d="M0 0 C4.95 0 9.9 0 15 0 C15 26.4 15 52.8 15 80 C10.05 80 5.1 80 0 80 C0 53.6 0 27.2 0 0 Z " fill="#000000" transform="translate(230,650)"/>
<path d="M0 0 C4.46763409 4.05876579 5.36729039 8.62040657 5.6875 14.5 C5.46437753 19.99518771 4.40040351 23.40781464 0.68359375 27.4765625 C-4.62229269 32.27771264 -9.76311252 32.6476853 -16.73046875 32.48046875 C-23.09338587 31.54541641 -27.21702478 28.32327074 -31.0625 23.3125 C-32.75564371 17.33005889 -32.84631185 11.53893556 -30.875 5.625 C-23.07290847 -5.29792815 -11.1810736 -6.62931898 0 0 Z M-20 3 C-20 3.33 -20 3.66 -20 4 C-19.24074219 4.04898438 -18.48148438 4.09796875 -17.69921875 4.1484375 C-16.70535156 4.22320313 -15.71148438 4.29796875 -14.6875 4.375 C-13.20830078 4.47941406 -13.20830078 4.47941406 -11.69921875 4.5859375 C-9 5 -9 5 -6 7 C-5.33067729 13.13545817 -5.33067729 13.13545817 -7.5 15.9375 C-7.995 16.288125 -8.49 16.63875 -9 17 C-7.02 19.97 -7.02 19.97 -5 23 C-1.75150023 21.27773504 -1.75150023 21.27773504 -1 18 C-0.61561182 13.31046415 -0.54104341 10.93556536 -2.625 6.6875 C-5.84332855 3.04570717 -8.77119412 1.26533403 -13.625 0.6875 C-16.13931253 1.0183306 -17.82901688 1.71349149 -20 3 Z M-23 5 C-25.65674502 9.53860607 -26.65728029 12.7417577 -26 18 C-24.20566347 21.40277812 -24.20566347 21.40277812 -22 24 C-21.67 24 -21.34 24 -21 24 C-21 17.73 -21 11.46 -21 5 C-21.66 5 -22.32 5 -23 5 Z M-16 9 C-16 9.99 -16 10.98 -16 12 C-14.35 12 -12.7 12 -11 12 C-11 11.01 -11 10.02 -11 9 C-12.65 9 -14.3 9 -16 9 Z M-16 16 C-16 18.64 -16 21.28 -16 24 C-17.65 24 -19.3 24 -21 24 C-20.67 24.66 -20.34 25.32 -20 26 C-15.74199462 27.41933513 -11.77088462 27.72651677 -7.5625 26 C-7.046875 25.67 -6.53125 25.34 -6 25 C-6 24.67 -6 24.34 -6 24 C-7.65 24 -9.3 24 -11 24 C-11.268125 23.236875 -11.53625 22.47375 -11.8125 21.6875 C-12.94424112 19.12619116 -13.91223401 17.80307062 -16 16 Z " fill="#000000" transform="translate(748,522)"/>
</svg>
